<svg xmlns="http://www.w3.org/2000/svg" data-name="Layer 1" viewBox="0 0 168 168"><path fill="rgb(15 60 217 )" d="M84 101a16 16 0 1 0-16-16 16.018 16.018 0 0 0 16 16Zm0-28a12 12 0 1 1-12 12 12.013 12.013 0 0 1 12-12Z"/><path fill="rgb(15 60 217 )" d="M79.494 89.283a2.021 2.021 0 0 0 2.55.44l8.473-5a2 2 0 0 0-2.034-3.446l-7.01 4.138-1.439-1.722a2 2 0 1 0-3.068 2.567zM66.486 111h35.028a2 2 0 0 0 0-4H66.486a2 2 0 0 0 0 4zm0 8h13.028a2 2 0 0 0 0-4H66.486a2 2 0 0 0 0 4z"/><path fill="#2d4356" d="M114.305 18.519a3 3 0 1 0-3-3 3.003 3.003 0 0 0 3 3zm0-4.5a1.5 1.5 0 1 1-1.5 1.5 1.501 1.501 0 0 1 1.5-1.5zm44 56.5a2 2 0 1 0 2 2 2.002 2.002 0 0 0-2-2zm0 3a1 1 0 1 1 1-1 1.001 1.001 0 0 1-1 1zm-60-32a2 2 0 1 0 2 2 2.002 2.002 0 0 0-2-2zm0 3a1 1 0 1 1 1-1 1.001 1.001 0 0 1-1 1zm60-33a2 2 0 1 0 2 2 2.002 2.002 0 0 0-2-2zm0 3a1 1 0 1 1 1-1 1.001 1.001 0 0 1-1 1zm-141 15a2 2 0 1 0-2 2 2.002 2.002 0 0 0 2-2zm-3 0a1 1 0 1 1 1 1 1.001 1.001 0 0 1-1-1z"/><path fill="rgb(15 60 217 )" d="m10.888 70.53 1.487-1.955-.939-.532-.955 2.19h-.031l-.97-2.175-.955.548 1.471 1.909v.031l-2.301-.297v1.063l2.316-.296v.031l-1.486 1.908.891.564 1.018-2.207h.031l.939 2.191.986-.563-1.502-1.878v-.031l2.362.281v-1.063l-2.362.312v-.031zM52.081 35.585l-.856 1.099.514.325.586-1.271h.017L52.883 37l.568-.324-.865-1.082v-.018l1.36.162v-.612l-1.36.18v-.018l.856-1.126-.54-.307-.55 1.262h-.018l-.559-1.253-.55.316.847 1.099v.018l-1.325-.171v.612l1.334-.171v.018zM155.305 49.232v-1.043l-2.317.307v-.031l1.458-1.918-.921-.522-.936 2.148h-.031l-.951-2.133-.937.537 1.443 1.873v.031l-2.257-.292v1.043l2.272-.291v.031l-1.458 1.872.875.553.998-2.165h.03l.921 2.149.967-.552-1.473-1.842v-.031l2.317.276zM73.748 10.105l1.258-1.655-.795-.45-.807 1.853h-.027l-.82-1.84-.809.463 1.245 1.616v.026l-1.946-.252v.901l1.959-.252v.027l-1.258 1.614.755.477.861-1.866h.026l.795 1.853.834-.477-1.271-1.588v-.027l1.998.239v-.901l-1.998.265v-.026z"/><circle cx="2" cy="144" r="2" fill="#2d4356"/><path fill="#2d4356" d="M11 142H8a2 2 0 0 0 0 4h3a2 2 0 0 0 0-4zm149 0h-3a2 2 0 0 0 0 4h3a2 2 0 0 0 0-4z"/><circle cx="166" cy="144" r="2" fill="#2d4356"/><path fill="rgb(15 60 217 )" d="M118.154 150h-8.308a2.006 2.006 0 0 0 0 4h8.308a2.006 2.006 0 0 0 0-4zm-60 0h-8.308a2.006 2.006 0 0 0 0 4h8.308a2.006 2.006 0 0 0 0-4zM104 150H64a2 2 0 0 0 0 4h15.94v2H72a2 2 0 0 0 0 4h25a2 2 0 0 0 0-4h-8.94v-2H104a2 2 0 0 0 0-4z"/><path fill="#2d4356" d="M150.721 142H96v-4h45.65a6.34 6.34 0 0 0 6.35-6.315V64.313A6.339 6.339 0 0 0 141.65 58H26.35A6.339 6.339 0 0 0 20 64.313v67.372A6.34 6.34 0 0 0 26.35 138H72v4H17.279a2.017 2.017 0 1 0 0 4H150.72a2.017 2.017 0 1 0 0-4ZM24 64.313A2.335 2.335 0 0 1 26.35 62h115.3a2.335 2.335 0 0 1 2.35 2.313V126H24ZM26.35 134a2.336 2.336 0 0 1-2.35-2.315V130h120v1.685a2.336 2.336 0 0 1-2.35 2.315ZM76 142v-4h16v4Z"/></svg>